<?xml version="1.0" encoding="UTF-8" standalone="no"?>
<!-- Created with Inkscape (http://www.inkscape.org/) -->

<svg
   xmlns:dc="http://purl.org/dc/elements/1.1/"
   xmlns:cc="http://creativecommons.org/ns#"
   xmlns:rdf="http://www.w3.org/1999/02/22-rdf-syntax-ns#"
   xmlns:svg="http://www.w3.org/2000/svg"
   xmlns="http://www.w3.org/2000/svg"
   xmlns:sodipodi="http://sodipodi.sourceforge.net/DTD/sodipodi-0.dtd"
   xmlns:inkscape="http://www.inkscape.org/namespaces/inkscape"
   width="96"
   height="96"
   id="svg4874"
   version="1.1"
   inkscape:version="0.92.3 (2405546, 2018-03-11)"
   viewBox="0 0 96 96.000001"
   sodipodi:docname="logo.svg">
  <defs
     id="defs4876" />
  <sodipodi:namedview
     id="base"
     pagecolor="#ffffff"
     bordercolor="#666666"
     borderopacity="1.0"
     inkscape:pageopacity="0.0"
     inkscape:pageshadow="2"
     inkscape:zoom="3.8808004"
     inkscape:cx="17.644774"
     inkscape:cy="48.409624"
     inkscape:document-units="px"
     inkscape:current-layer="layer1"
     showgrid="true"
     showborder="true"
     fit-margin-top="0"
     fit-margin-left="0"
     fit-margin-right="0"
     fit-margin-bottom="0"
     inkscape:snap-bbox="true"
     inkscape:bbox-paths="true"
     inkscape:bbox-nodes="true"
     inkscape:snap-bbox-edge-midpoints="true"
     inkscape:snap-bbox-midpoints="true"
     inkscape:object-paths="true"
     inkscape:snap-intersection-paths="true"
     inkscape:object-nodes="true"
     inkscape:snap-smooth-nodes="true"
     inkscape:snap-midpoints="true"
     inkscape:snap-object-midpoints="true"
     inkscape:snap-center="true"
     showguides="true"
     inkscape:guide-bbox="true"
     inkscape:snap-global="true"
     inkscape:window-width="1853"
     inkscape:window-height="1025"
     inkscape:window-x="67"
     inkscape:window-y="27"
     inkscape:window-maximized="1">
    <inkscape:grid
       type="xygrid"
       id="grid5451"
       empspacing="8" />
    <sodipodi:guide
       orientation="1,0"
       position="8,-8.0000001"
       id="guide4063"
       inkscape:locked="false" />
    <sodipodi:guide
       orientation="1,0"
       position="4,-8.0000001"
       id="guide4065"
       inkscape:locked="false" />
    <sodipodi:guide
       orientation="0,1"
       position="-8,88.000001"
       id="guide4067"
       inkscape:locked="false" />
    <sodipodi:guide
       orientation="0,1"
       position="96,96"
       id="guide4069"
       inkscape:locked="false" />
    <sodipodi:guide
       orientation="0,1"
       position="104,4"
       id="guide4071"
       inkscape:locked="false" />
    <sodipodi:guide
       orientation="0,1"
       position="-5,8.0000001"
       id="guide4073"
       inkscape:locked="false" />
    <sodipodi:guide
       orientation="1,0"
       position="88,-8.0000001"
       id="guide4077"
       inkscape:locked="false" />
    <sodipodi:guide
       orientation="0,1"
       position="-8,84.000001"
       id="guide4074"
       inkscape:locked="false" />
    <sodipodi:guide
       orientation="1,0"
       position="12,-8.0000001"
       id="guide4076"
       inkscape:locked="false" />
    <sodipodi:guide
       orientation="1,0"
       position="84,-8.0000001"
       id="guide4080"
       inkscape:locked="false" />
    <sodipodi:guide
       position="48,-8.0000001"
       orientation="1,0"
       id="guide4170"
       inkscape:locked="false" />
    <sodipodi:guide
       position="-8,48"
       orientation="0,1"
       id="guide4172"
       inkscape:locked="false" />
    <sodipodi:guide
       position="92,-8.0000001"
       orientation="1,0"
       id="guide4760"
       inkscape:locked="false" />
  </sodipodi:namedview>
  <metadata
     id="metadata4879">
    <rdf:RDF>
      <cc:Work
         rdf:about="">
        <dc:format>image/svg+xml</dc:format>
        <dc:type
           rdf:resource="http://purl.org/dc/dcmitype/StillImage" />
        <dc:title />
      </cc:Work>
    </rdf:RDF>
  </metadata>
  <g
     inkscape:label="background"
     inkscape:groupmode="layer"
     id="layer1"
     transform="translate(67.857146,-78.50504)">
    <rect
       transform="rotate(90)"
       y="-28.142857"
       x="78.505051"
       height="96"
       width="96"
       id="rect4782"
       style="color:#000000;display:inline;overflow:visible;visibility:visible;fill:#ececec;stroke:none;stroke-width:4;marker:none;enable-background:accumulate;fill-opacity:1" />
  </g>
  <g
     inkscape:groupmode="layer"
     id="layer4"
     inkscape:label="simcard"
     style="display:inline">
    <path
       style="color:#000000;font-style:normal;font-variant:normal;font-weight:normal;font-stretch:normal;font-size:medium;line-height:normal;font-family:sans-serif;text-indent:0;text-align:start;text-decoration:none;text-decoration-line:none;text-decoration-style:solid;text-decoration-color:#000000;letter-spacing:normal;word-spacing:normal;text-transform:none;writing-mode:lr-tb;direction:ltr;baseline-shift:baseline;text-anchor:start;white-space:normal;clip-rule:nonzero;display:inline;overflow:visible;visibility:visible;opacity:1;isolation:auto;mix-blend-mode:normal;color-interpolation:sRGB;color-interpolation-filters:linearRGB;solid-color:#000000;solid-opacity:1;fill:#808080;fill-opacity:1;fill-rule:nonzero;stroke:none;stroke-width:4.00000048;stroke-linecap:butt;stroke-linejoin:miter;stroke-miterlimit:4;stroke-dasharray:none;stroke-dashoffset:0;stroke-opacity:1;marker:none;color-rendering:auto;image-rendering:auto;shape-rendering:auto;text-rendering:auto;enable-background:accumulate"
       d="M 31.988281,3.9980469 31.976562,4 C 26.943787,4.05818 23.262944,3.8797256 20.251953,5.5410156 18.746458,6.3716606 17.555147,7.776594 16.896484,9.53125 16.237822,11.285907 16,13.367611 16,15.998047 V 80 c 0,2.63043 0.237822,4.712137 0.896484,6.466797 0.658663,1.75465 1.849974,3.159594 3.355469,3.990234 3.010991,1.66129 6.691834,1.484789 11.724609,1.542969 h 0.01172 32.023438 0.01172 c 5.032775,-0.0582 8.713619,0.118321 11.724609,-1.542969 1.505495,-0.83064 2.696807,-2.235584 3.355469,-3.990234 C 79.762178,84.712137 80,82.63043 80,80 V 21.169922 L 62.828125,3.9980469 Z m 0.01172,4 H 61.171875 L 76,22.828125 V 80 c 0,2.36956 -0.250371,4.020917 -0.640625,5.060547 -0.390254,1.03962 -0.809331,1.489751 -1.542969,1.894531 C 72.351872,87.763118 69.038253,87.94124 64,88 H 32.023438 32 C 26.961747,87.9412 23.648128,87.763118 22.183594,86.955078 21.449957,86.550298 21.032832,86.100167 20.642578,85.060547 20.252325,84.020917 20,82.36956 20,80 V 15.998047 c 0,-2.369565 0.252325,-4.020923 0.642578,-5.060547 0.390254,-1.039624 0.807379,-1.4897522 1.541016,-1.8945312 1.464534,-0.8080451 4.778153,-0.9861559 9.816407,-1.0449219 z"
       id="path4643"
       inkscape:connector-curvature="0"
       sodipodi:nodetypes="ccssssccccccccsccccccscccccccssssc" />
  </g>
  <g
     inkscape:groupmode="layer"
     id="layer2"
     inkscape:label="questionmark"
     style="display:inline">
    <path
       style="font-style:normal;font-variant:normal;font-weight:500;font-stretch:normal;font-size:72.03643799px;line-height:125%;font-family:Ubuntu;-inkscape-font-specification:'Ubuntu Medium';text-align:center;letter-spacing:0px;word-spacing:0px;writing-mode:lr-tb;text-anchor:middle;display:inline;fill:#808080;fill-opacity:1;stroke:none;stroke-width:0.69986159"
       d="m 48.597067,27.435483 c -1.679349,1.12e-4 -3.267782,0.192997 -4.76553,0.576144 -1.359778,0.35623 -2.564156,0.842131 -3.676931,1.404181 l 1.136372,3.144218 c 2.167333,-1.100169 4.390554,-1.702393 6.666247,-1.702393 1.91331,0 3.431106,0.505484 4.47601,1.548939 1.0311,0.994168 1.553286,2.3212 1.553286,3.894072 0,0.980707 -0.229747,1.898813 -0.684719,2.734543 -0.407078,0.812392 -0.940919,1.585738 -1.599612,2.317623 -0.645141,0.716814 -1.325009,1.433579 -2.04113,2.1497 l -0.0028,0.0028 -0.0056,0.0028 c -0.697858,0.662977 -1.360415,1.396759 -1.990464,2.201822 l -0.0028,0.0042 -0.0014,0.0028 c -0.619731,0.757435 -1.135148,1.582777 -1.548946,2.478301 -0.368388,0.873404 -0.557326,1.850807 -0.557326,2.944445 0,0.655942 0.07586,1.271242 0.178052,1.871758 h 3.425051 c -0.0042,-0.07347 -0.0203,-0.139181 -0.0203,-0.215691 v -0.587727 c 0,-1.220856 0.24213,-2.330615 0.731045,-3.310685 0.474824,-0.986167 1.060724,-1.883406 1.75595,-2.689659 l 0.0028,-0.0042 c 0.0014,-0.0014 0.0014,-0.0028 0.0028,-0.0042 0.686119,-0.829885 1.444331,-1.622047 2.272746,-2.378425 0.806281,-0.736176 1.541484,-1.507233 2.206155,-2.311834 0.657538,-0.795956 1.209586,-1.6429 1.658965,-2.540552 0,0 0,-0.0014 0,-0.0014 0.435869,-0.905779 0.657216,-1.931321 0.657216,-3.093538 0,-0.919681 -0.1526,-1.879808 -0.463239,-2.880745 l -0.0028,-0.0072 -0.0014,-0.0056 c -0.269248,-1.00968 -0.76958,-1.91485 -1.515647,-2.728747 -0.738983,-0.806162 -1.738723,-1.470008 -3.015376,-1.987572 l -0.0056,-0.0028 -0.0056,-0.0028 C 52.198035,27.718273 50.59234,27.435956 48.599237,27.435816 h -0.0014 z M 47.742976,58.82257 c -1.023505,0 -1.76953,0.312172 -2.339337,0.945294 -0.585109,0.650111 -0.865669,1.382647 -0.865669,2.261161 0,0.878514 0.28056,1.612499 0.865669,2.262617 0.569807,0.633122 1.315832,0.943838 2.339337,0.943838 1.023519,0 1.770979,-0.310716 2.340786,-0.943838 0.585102,-0.650118 0.865676,-1.384103 0.865676,-2.262617 0,-0.878514 -0.280574,-1.61105 -0.865676,-2.261161 -0.569807,-0.633122 -1.317267,-0.945294 -2.340786,-0.945294 z"
       id="text4098"
       inkscape:connector-curvature="0" />
  </g>
  <g
     inkscape:groupmode="layer"
     id="layer3"
     inkscape:label="brackets"
     style="display:inline">
    <path
       inkscape:connector-curvature="0"
       id="path4154"
       style="font-style:normal;font-variant:normal;font-weight:500;font-stretch:normal;font-size:medium;line-height:125%;font-family:Ubuntu;-inkscape-font-specification:'Ubuntu Medium';text-align:center;letter-spacing:0px;word-spacing:0px;writing-mode:lr-tb;text-anchor:middle;display:inline;fill:#808080;fill-opacity:1;stroke:none;stroke-width:1px;stroke-linecap:butt;stroke-linejoin:miter;stroke-opacity:1"
       d="m 23.890188,43.354335 q 1.9358,0 2.8196,-1.21488 0.9258,-1.25826 0.9258,-2.95041 v -6.37809 q 0,-2.03926 0.3787,-3.60124 0.3788,-1.60537 1.3467,-2.64669 0.9679,-1.08471 2.6934,-1.60537 1.7254,-0.56405 4.4187,-0.56405 h 0.2947 v 4.16528 q -1.2205,0 -2.0622,0.17356 -0.8417,0.17355 -1.3466,0.65082 -0.505,0.43389 -0.7575,1.21488 -0.2105,0.7376 -0.2105,1.90909 v 6.20454 q 0,2.60331 -0.6733,4.16529 -0.6312,1.51859 -2.1884,2.51653 1.5572,0.99793 2.1884,2.55991 0.6733,1.56198 0.6733,4.12189 v 6.24793 q 0,1.17149 0.2105,1.9091 0.2525,0.7376 0.7575,1.17148 0.5049,0.47727 1.3466,0.65083 0.8417,0.17355 2.0622,0.17355 v 4.16528 q -2.8197,0 -4.5872,-0.52065 -1.7675,-0.52066 -2.7775,-1.60537 -1.01,-1.04133 -1.3888,-2.60331 -0.3787,-1.56198 -0.3787,-3.64462 v -6.42149 q 0,-1.64875 -0.9258,-2.86363 -0.8838,-1.25827 -2.8196,-1.25827 z" />
    <path
       inkscape:connector-curvature="0"
       id="path4156"
       style="font-style:normal;font-variant:normal;font-weight:500;font-stretch:normal;font-size:medium;line-height:125%;font-family:Ubuntu;-inkscape-font-specification:'Ubuntu Medium';text-align:center;letter-spacing:0px;word-spacing:0px;writing-mode:lr-tb;text-anchor:middle;display:inline;fill:#808080;fill-opacity:1;stroke:none;stroke-width:1px;stroke-linecap:butt;stroke-linejoin:miter;stroke-opacity:1"
       d="m 71.832788,47.476225 q -1.9359,0 -2.8617,1.25827 -0.8838,1.21488 -0.8838,2.86363 v 6.42149 q 0,2.08264 -0.3788,3.64462 -0.3786,1.56198 -1.3887,2.60331 -1.01,1.08471 -2.7775,1.60537 -1.7675,0.52065 -4.5871,0.52065 v -4.16528 q 2.4409,0 3.4088,-0.82438 0.9679,-0.78099 0.9679,-3.08058 v -6.24793 q 0,-2.55991 0.6313,-4.12189 0.6733,-1.56198 2.2304,-2.55991 -1.5571,-0.99794 -2.2304,-2.51653 -0.6313,-1.56198 -0.6313,-4.16529 v -6.20454 q 0,-1.17149 -0.2525,-1.90909 -0.2104,-0.78099 -0.7154,-1.21488 -0.5051,-0.47727 -1.3467,-0.65082 -0.8417,-0.17356 -2.0621,-0.17356 v -4.16528 h 0.2946 q 2.6933,0 4.4188,0.56405 1.7254,0.52066 2.6933,1.60537 0.968,1.04132 1.3466,2.64669 0.3788,1.56198 0.3788,3.60124 v 6.37809 q 0,1.69215 0.8838,2.95041 0.9258,1.21488 2.8617,1.21488 z" />
  </g>
</svg>
